<?xml version="1.0" encoding="UTF-8"?>
<svg width="50px" height="46px" viewBox="0 0 50 46" version="1.1" xmlns="http://www.w3.org/2000/svg" xmlns:xlink="http://www.w3.org/1999/xlink">
    <!-- Generator: Sketch 52.2 (67145) - http://www.bohemiancoding.com/sketch -->
    <title>Group 39</title>
    <desc>Created with Sketch.</desc>
    <defs>
        <polygon id="path-1" points="0 44.2189 49 44.2189 49 -0.0001 0 -0.0001"></polygon>
    </defs>
    <g id="Page-1" stroke="none" stroke-width="1" fill="none" fill-rule="evenodd">
        <g id="AM" transform="translate(-1631.000000, -639.000000)">
            <g id="Group-39" transform="translate(1631.000000, 640.000000)">
                <path d="M7.2833,18.7391 C7.2833,20.6131 5.7643,22.1311 3.8913,22.1311 C2.0183,22.1311 0.5003,20.6131 0.5003,18.7391 C0.5003,16.8661 2.0183,15.3471 3.8913,15.3471 C5.7643,15.3471 7.2833,16.8661 7.2833,18.7391 Z" id="Stroke-1" stroke="#4E4D4D"></path>
                <path d="M18.5489,16.2527 C18.5489,18.1267 17.0299,19.6447 15.1569,19.6447 C13.2839,19.6447 11.7659,18.1267 11.7659,16.2527 C11.7659,14.3797 13.2839,12.8607 15.1569,12.8607 C17.0299,12.8607 18.5489,14.3797 18.5489,16.2527 Z" id="Stroke-3" stroke="#4E4D4D"></path>
                <path d="M28.8434,6.0574 C28.8434,7.9304 27.3254,9.4494 25.4514,9.4494 C23.5784,9.4494 22.0604,7.9304 22.0604,6.0574 C22.0604,4.1834 23.5784,2.6654 25.4514,2.6654 C27.3254,2.6654 28.8434,4.1834 28.8434,6.0574 Z" id="Stroke-5" stroke="#4E4D4D"></path>
                <path d="M38.253,9.449 C38.253,11.322 36.734,12.841 34.861,12.841 C32.988,12.841 31.469,11.322 31.469,9.449 C31.469,7.576 32.988,6.057 34.861,6.057 C36.734,6.057 38.253,7.576 38.253,9.449 Z" id="Stroke-7" stroke="#4E4D4D"></path>
                <path d="M48.5001,3.8919 C48.5001,5.7649 46.9811,7.2839 45.1081,7.2839 C43.2351,7.2839 41.7161,5.7649 41.7161,3.8919 C41.7161,2.0179 43.2351,0.4999 45.1081,0.4999 C46.9811,0.4999 48.5001,2.0179 48.5001,3.8919 Z" id="Stroke-9" stroke="#4E4D4D"></path>
                <path d="M7.2833,18.0843 L11.7653,17.0723" id="Stroke-11" stroke="#4E4D4D"></path>
                <path d="M17.5694,13.869 L23.0184,8.708" id="Stroke-13" stroke="#4E4D4D"></path>
                <path d="M28.8434,6.6673 L31.5454,7.9593" id="Stroke-15" stroke="#4E4D4D"></path>
                <path d="M37.9132,7.471 L41.7162,5.222" id="Stroke-17" stroke="#4E4D4D"></path>
                <path d="M7.6066,31.6629 C7.6066,33.5359 6.0876,35.0549 4.2146,35.0549 C2.3416,35.0549 0.8226,33.5359 0.8226,31.6629 C0.8226,29.7899 2.3416,28.2709 4.2146,28.2709 C6.0876,28.2709 7.6066,29.7899 7.6066,31.6629 Z" id="Stroke-19" stroke="#4E4D4D"></path>
                <path d="M18.5489,34.6688 C18.5489,36.5418 17.0299,38.0608 15.1569,38.0608 C13.2839,38.0608 11.7659,36.5418 11.7659,34.6688 C11.7659,32.7948 13.2839,31.2768 15.1569,31.2768 C17.0299,31.2768 18.5489,32.7948 18.5489,34.6688 Z" id="Stroke-21" stroke="#4E4D4D"></path>
                <path d="M28.8434,27.0447 C28.8434,28.9177 27.3254,30.4367 25.4514,30.4367 C23.5784,30.4367 22.0604,28.9177 22.0604,27.0447 C22.0604,25.1717 23.5784,23.6527 25.4514,23.6527 C27.3254,23.6527 28.8434,25.1717 28.8434,27.0447 Z" id="Stroke-23" stroke="#4E4D4D"></path>
                <path d="M38.253,30.4363 C38.253,32.3103 36.734,33.8283 34.861,33.8283 C32.988,33.8283 31.469,32.3103 31.469,30.4363 C31.469,28.5633 32.988,27.0443 34.861,27.0443 C36.734,27.0443 38.253,28.5633 38.253,30.4363 Z" id="Stroke-25" stroke="#4E4D4D"></path>
                <path d="M48.2691,21.4876 C48.2691,23.3606 46.7501,24.8796 44.8771,24.8796 C43.0041,24.8796 41.4851,23.3606 41.4851,21.4876 C41.4851,19.6146 43.0041,18.0956 44.8771,18.0956 C46.7501,18.0956 48.2691,19.6146 48.2691,21.4876 Z" id="Stroke-27" stroke="#4E4D4D"></path>
                <path d="M7.4156,31.9896 L11.9536,33.0966" id="Stroke-29" stroke="#4E4D4D"></path>
                <path d="M17.8116,32.4012 L22.4676,28.9462" id="Stroke-31" stroke="#4E4D4D"></path>
                <path d="M28.8434,27.6546 L31.5454,28.9466" id="Stroke-33" stroke="#4E4D4D"></path>
                <path d="M37.9313,28.7972 L42.8353,24.1912" id="Stroke-35" stroke="#4E4D4D"></path>
                <mask id="mask-2" fill="white">
                    <use xlink:href="#path-1"></use>
                </mask>
                <g id="Clip-38"></g>
                <polygon id="Fill-37" fill="#00D7FF" mask="url(#mask-2)" points="0.5 44.2189 48.5 44.2189 48.5 41.5939 0.5 41.5939"></polygon>
            </g>
        </g>
    </g>
</svg>