<?xml version="1.0" encoding="UTF-8"?>
<svg width="50px" height="50px" viewBox="0 0 50 50" version="1.1" xmlns="http://www.w3.org/2000/svg" xmlns:xlink="http://www.w3.org/1999/xlink">
    <!-- Generator: Sketch 52.2 (67145) - http://www.bohemiancoding.com/sketch -->
    <title>Group 57</title>
    <desc>Created with Sketch.</desc>
    <g id="Page-1" stroke="none" stroke-width="1" fill="none" fill-rule="evenodd">
        <g id="AM" transform="translate(-960.000000, -906.000000)">
            <g id="Group-57" transform="translate(960.000000, 907.000000)">
                <path d="M47.5043,48.4999 L1.4953,48.4999 C0.9453,48.4999 0.5003,48.0539 0.5003,47.5049 L0.5003,1.4959 C0.5003,0.9459 0.9453,0.4999 1.4953,0.4999 L47.5043,0.4999 C48.0543,0.4999 48.5003,0.9459 48.5003,1.4959 L48.5003,47.5049 C48.5003,48.0539 48.0543,48.4999 47.5043,48.4999 Z" id="Stroke-1" stroke="#4E4D4D" stroke-linecap="round" stroke-linejoin="round"></path>
                <path d="M0.5004,5.7109 L48.1184,5.7109" id="Stroke-3" stroke="#4E4D4D" stroke-linecap="round" stroke-linejoin="round"></path>
                <path d="M41.9047,3.0863 C41.9047,3.6073 41.4827,4.0293 40.9627,4.0293 C40.4417,4.0293 40.0197,3.6073 40.0197,3.0863 C40.0197,2.5653 40.4417,2.1443 40.9627,2.1443 C41.4827,2.1443 41.9047,2.5653 41.9047,3.0863" id="Fill-5" fill="#4E4D4D"></path>
                <path d="M45.2494,3.0863 C45.2494,3.6073 44.8274,4.0293 44.3074,4.0293 C43.7864,4.0293 43.3634,3.6073 43.3634,3.0863 C43.3634,2.5653 43.7864,2.1443 44.3074,2.1443 C44.8274,2.1443 45.2494,2.5653 45.2494,3.0863" id="Fill-7" fill="#4E4D4D"></path>
                <path d="M8.3011,11.7314 C8.3011,13.0234 7.4971,14.0714 6.5051,14.0714 C5.5131,14.0714 4.7091,13.0234 4.7091,11.7314 C4.7091,10.4394 5.5131,9.3914 6.5051,9.3914 C7.4971,9.3914 8.3011,10.4394 8.3011,11.7314 Z" id="Stroke-9" stroke="#4E4D4D" fill="#00D7FF"></path>
                <path d="M15.4916,11.7314 C15.4916,13.0234 14.6876,14.0714 13.6956,14.0714 C12.7046,14.0714 11.8996,13.0234 11.8996,11.7314 C11.8996,10.4394 12.7046,9.3914 13.6956,9.3914 C14.6876,9.3914 15.4916,10.4394 15.4916,11.7314 Z" id="Stroke-11" stroke="#4E4D4D" fill="#00D7FF"></path>
                <path d="M22.683,11.7314 C22.683,13.0234 21.878,14.0714 20.887,14.0714 C19.895,14.0714 19.091,13.0234 19.091,11.7314 C19.091,10.4394 19.895,9.3914 20.887,9.3914 C21.878,9.3914 22.683,10.4394 22.683,11.7314 Z" id="Stroke-13" stroke="#4E4D4D" fill="#00D7FF"></path>
                <path d="M29.8734,11.7314 C29.8734,13.0234 29.0694,14.0714 28.0774,14.0714 C27.0854,14.0714 26.2814,13.0234 26.2814,11.7314 C26.2814,10.4394 27.0854,9.3914 28.0774,9.3914 C29.0694,9.3914 29.8734,10.4394 29.8734,11.7314 Z" id="Stroke-15" stroke="#4E4D4D" fill="#00D7FF"></path>
                <path d="M37.0638,11.7314 C37.0638,13.0234 36.2598,14.0714 35.2678,14.0714 C34.2768,14.0714 33.4718,13.0234 33.4718,11.7314 C33.4718,10.4394 34.2768,9.3914 35.2678,9.3914 C36.2598,9.3914 37.0638,10.4394 37.0638,11.7314 Z" id="Stroke-17" stroke="#4E4D4D" fill="#00D7FF"></path>
                <path d="M44.2552,11.7314 C44.2552,13.0234 43.4502,14.0714 42.4592,14.0714 C41.4672,14.0714 40.6632,13.0234 40.6632,11.7314 C40.6632,10.4394 41.4672,9.3914 42.4592,9.3914 C43.4502,9.3914 44.2552,10.4394 44.2552,11.7314 Z" id="Stroke-19" stroke="#4E4D4D" fill="#00D7FF"></path>
                <path d="M8.3011,41.704 C8.3011,42.996 7.4971,44.044 6.5051,44.044 C5.5131,44.044 4.7091,42.996 4.7091,41.704 C4.7091,40.412 5.5131,39.364 6.5051,39.364 C7.4971,39.364 8.3011,40.412 8.3011,41.704 Z" id="Stroke-21" stroke="#4E4D4D" fill="#00D7FF"></path>
                <path d="M15.4916,41.704 C15.4916,42.996 14.6876,44.044 13.6956,44.044 C12.7046,44.044 11.8996,42.996 11.8996,41.704 C11.8996,40.412 12.7046,39.364 13.6956,39.364 C14.6876,39.364 15.4916,40.412 15.4916,41.704 Z" id="Stroke-23" stroke="#4E4D4D" fill="#00D7FF"></path>
                <path d="M29.8734,41.704 C29.8734,42.996 29.0694,44.044 28.0774,44.044 C27.0854,44.044 26.2814,42.996 26.2814,41.704 C26.2814,40.412 27.0854,39.364 28.0774,39.364 C29.0694,39.364 29.8734,40.412 29.8734,41.704 Z" id="Stroke-25" stroke="#4E4D4D" fill="#00D7FF"></path>
                <path d="M37.0638,41.704 C37.0638,42.996 36.2598,44.044 35.2678,44.044 C34.2768,44.044 33.4718,42.996 33.4718,41.704 C33.4718,40.412 34.2768,39.364 35.2678,39.364 C36.2598,39.364 37.0638,40.412 37.0638,41.704 Z" id="Stroke-27" stroke="#4E4D4D" fill="#00D7FF"></path>
                <path d="M44.2552,41.704 C44.2552,42.996 43.4502,44.044 42.4592,44.044 C41.4672,44.044 40.6632,42.996 40.6632,41.704 C40.6632,40.412 41.4672,39.364 42.4592,39.364 C43.4502,39.364 44.2552,40.412 44.2552,41.704 Z" id="Stroke-29" stroke="#4E4D4D" fill="#00D7FF"></path>
                <path d="M15.4916,21.7221 C15.4916,23.0141 14.6876,24.0621 13.6956,24.0621 C12.7046,24.0621 11.8996,23.0141 11.8996,21.7221 C11.8996,20.4301 12.7046,19.3821 13.6956,19.3821 C14.6876,19.3821 15.4916,20.4301 15.4916,21.7221 Z" id="Stroke-31" stroke="#4E4D4D" fill="#00D7FF"></path>
                <path d="M22.683,21.7221 C22.683,23.0141 21.878,24.0621 20.887,24.0621 C19.895,24.0621 19.091,23.0141 19.091,21.7221 C19.091,20.4301 19.895,19.3821 20.887,19.3821 C21.878,19.3821 22.683,20.4301 22.683,21.7221 Z" id="Stroke-33" stroke="#4E4D4D" fill="#00D7FF"></path>
                <path d="M37.0638,21.7221 C37.0638,23.0141 36.2598,24.0621 35.2678,24.0621 C34.2768,24.0621 33.4718,23.0141 33.4718,21.7221 C33.4718,20.4301 34.2768,19.3821 35.2678,19.3821 C36.2598,19.3821 37.0638,20.4301 37.0638,21.7221 Z" id="Stroke-35" stroke="#4E4D4D" fill="#00D7FF"></path>
                <path d="M6.5765,24.6122 L6.4335,24.6122 C6.0975,24.6122 5.8235,24.3392 5.8235,24.0022 L5.8235,19.4422 C5.8235,19.1052 6.0975,18.8322 6.4335,18.8322 L6.5765,18.8322 C6.9135,18.8322 7.1865,19.1052 7.1865,19.4422 L7.1865,24.0022 C7.1865,24.3392 6.9135,24.6122 6.5765,24.6122" id="Fill-37" fill="#4E4D4D"></path>
                <path d="M28.1488,24.6122 L28.0058,24.6122 C27.6698,24.6122 27.3958,24.3392 27.3958,24.0022 L27.3958,19.4422 C27.3958,19.1052 27.6698,18.8322 28.0058,18.8322 L28.1488,18.8322 C28.4858,18.8322 28.7588,19.1052 28.7588,19.4422 L28.7588,24.0022 C28.7588,24.3392 28.4858,24.6122 28.1488,24.6122" id="Fill-39" fill="#4E4D4D"></path>
                <path d="M20.9584,44.5937 L20.8144,44.5937 C20.4794,44.5937 20.2054,44.3207 20.2054,43.9847 L20.2054,39.4237 C20.2054,39.0867 20.4794,38.8137 20.8144,38.8137 L20.9584,38.8137 C21.2954,38.8137 21.5674,39.0867 21.5674,39.4237 L21.5674,43.9847 C21.5674,44.3207 21.2954,44.5937 20.9584,44.5937" id="Fill-41" fill="#4E4D4D"></path>
                <path d="M42.5306,24.6122 L42.3876,24.6122 C42.0516,24.6122 41.7776,24.3392 41.7776,24.0022 L41.7776,19.4422 C41.7776,19.1052 42.0516,18.8322 42.3876,18.8322 L42.5306,18.8322 C42.8676,18.8322 43.1396,19.1052 43.1396,19.4422 L43.1396,24.0022 C43.1396,24.3392 42.8676,24.6122 42.5306,24.6122" id="Fill-43" fill="#4E4D4D"></path>
                <path d="M22.683,31.7133 C22.683,33.0053 21.878,34.0533 20.887,34.0533 C19.895,34.0533 19.091,33.0053 19.091,31.7133 C19.091,30.4213 19.895,29.3733 20.887,29.3733 C21.878,29.3733 22.683,30.4213 22.683,31.7133 Z" id="Stroke-45" stroke="#4E4D4D"></path>
                <path d="M6.5765,34.603 L6.4335,34.603 C6.0975,34.603 5.8235,34.33 5.8235,33.993 L5.8235,29.433 C5.8235,29.096 6.0975,28.823 6.4335,28.823 L6.5765,28.823 C6.9135,28.823 7.1865,29.096 7.1865,29.433 L7.1865,33.993 C7.1865,34.33 6.9135,34.603 6.5765,34.603" id="Fill-47" fill="#4E4D4D"></path>
                <path d="M28.1488,34.603 L28.0058,34.603 C27.6698,34.603 27.3958,34.33 27.3958,33.993 L27.3958,29.433 C27.3958,29.096 27.6698,28.823 28.0058,28.823 L28.1488,28.823 C28.4858,28.823 28.7588,29.096 28.7588,29.433 L28.7588,33.993 C28.7588,34.33 28.4858,34.603 28.1488,34.603" id="Fill-49" fill="#4E4D4D"></path>
                <path d="M42.5306,34.603 L42.3876,34.603 C42.0516,34.603 41.7776,34.33 41.7776,33.993 L41.7776,29.433 C41.7776,29.096 42.0516,28.823 42.3876,28.823 L42.5306,28.823 C42.8676,28.823 43.1396,29.096 43.1396,29.433 L43.1396,33.993 C43.1396,34.33 42.8676,34.603 42.5306,34.603" id="Fill-51" fill="#4E4D4D"></path>
                <path d="M35.3402,34.603 L35.1962,34.603 C34.8602,34.603 34.5872,34.33 34.5872,33.993 L34.5872,29.433 C34.5872,29.096 34.8602,28.823 35.1962,28.823 L35.3402,28.823 C35.6762,28.823 35.9492,29.096 35.9492,29.433 L35.9492,33.993 C35.9492,34.33 35.6762,34.603 35.3402,34.603" id="Fill-53" fill="#4E4D4D"></path>
                <path d="M13.7679,34.603 L13.6239,34.603 C13.2879,34.603 13.0149,34.33 13.0149,33.993 L13.0149,29.433 C13.0149,29.096 13.2879,28.823 13.6239,28.823 L13.7679,28.823 C14.1039,28.823 14.3769,29.096 14.3769,29.433 L14.3769,33.993 C14.3769,34.33 14.1039,34.603 13.7679,34.603" id="Fill-55" fill="#4E4D4D"></path>
            </g>
        </g>
    </g>
</svg>