<?xml version="1.0" encoding="UTF-8"?>
<svg width="14px" height="14px" viewBox="0 0 14 14" version="1.1" xmlns="http://www.w3.org/2000/svg" xmlns:xlink="http://www.w3.org/1999/xlink">
    <!-- Generator: Sketch 52.2 (67145) - http://www.bohemiancoding.com/sketch -->
    <title>Path Copy 2</title>
    <desc>Created with Sketch.</desc>
    <g id="Page-1" stroke="none" stroke-width="1" fill="none" fill-rule="evenodd">
        <g id="物解析-copy-10" transform="translate(-1819.000000, -220.000000)" fill="#00D7FF" fill-rule="nonzero">
            <path d="M1832.65655,220.339334 C1832.19915,219.886351 1831.45954,219.886351 1831.00539,220.342569 L1826,225.348029 L1820.99461,220.342569 C1820.54046,219.886351 1819.80085,219.886351 1819.34345,220.339334 C1818.88606,220.792316 1818.88606,221.530031 1819.34021,221.98625 L1824.35208,226.998181 L1819.34021,232.010111 C1818.88606,232.46633 1818.88606,233.204045 1819.34345,233.657027 C1819.57053,233.883519 1819.86897,233.996764 1820.16741,233.996764 C1820.46585,233.996764 1820.76754,233.883519 1820.99461,233.653792 L1826,228.648332 L1831.00539,233.657027 C1831.23246,233.886754 1831.53415,234 1831.83259,234 C1832.13103,234 1832.42947,233.886754 1832.65655,233.660263 C1833.11394,233.20728 1833.11394,232.469565 1832.65979,232.013347 L1827.64792,226.998181 L1832.65655,221.98625 C1833.11394,221.530031 1833.11394,220.792316 1832.65655,220.339334 Z" id="Path-Copy-2"></path>
        </g>
    </g>
</svg>