<?xml version="1.0" encoding="UTF-8"?>
<svg width="12px" height="16px" viewBox="0 0 12 16" version="1.1" xmlns="http://www.w3.org/2000/svg" xmlns:xlink="http://www.w3.org/1999/xlink">
    <!-- Generator: Sketch 54.1 (76490) - https://sketchapp.com -->
    <title>filetext copy 2</title>
    <desc>Created with Sketch.</desc>
    <g id="Page-1" stroke="none" stroke-width="1" fill="none" fill-rule="evenodd">
        <g id="网关管理" transform="translate(-1823.000000, -354.000000)" fill="#00D7FF" fill-rule="nonzero">
            <g id="Group-11" transform="translate(1778.000000, 223.000000)">
                <g id="filetext-copy-2" transform="translate(45.000000, 131.000000)">
                    <path d="M11.665625,4.715625 L7.325,0.3328125 C7.2546875,0.2625 7.178125,0.203125 7.0953125,0.153125 C7.0734375,0.140625 7.0515625,0.128125 7.028125,0.1171875 C7.0140625,0.109375 6.9984375,0.103125 6.984375,0.096875 C6.84375,0.034375 6.6890625,8.8817842e-16 6.53125,8.8817842e-16 L1.140625,8.8817842e-16 C0.51875,8.8817842e-16 0,0.503125 0,1.125 L0,14.875 C0,15.496875 0.51875,16 1.140625,16 L10.875,16 C11.496875,16 11.984375,15.496875 11.984375,14.875 L11.984375,5.5078125 C11.984375,5.2109375 11.875,4.9265625 11.665625,4.715625 Z M7.109375,1.725 L10.246875,4.875 L7.109375,4.875 L7.109375,1.725 Z M10.859375,14.875 L1.125,14.875 L1.125,1.125 L5.984375,1.125 L5.984375,4.875 C5.984375,5.496875 6.503125,6 7.125,6 L10.859375,6 L10.859375,14.875 Z M7.125,7.5625 C7.125,7.2515625 6.8734375,7 6.5625,7 L2.5625,7 C2.2515625,7 2,7.2515625 2,7.5625 C2,7.8734375 2.2515625,8.125 2.5625,8.125 L6.5625,8.125 C6.8734375,8.125 7.125,7.8734375 7.125,7.5625 Z M10.125,10.0625 C10.125,9.7515625 9.8734375,9.5 9.5625,9.5 L2.5625,9.5 C2.2515625,9.5 2,9.7515625 2,10.0625 C2,10.3734375 2.2515625,10.625 2.5625,10.625 L9.5625,10.625 C9.8734375,10.625 10.125,10.3734375 10.125,10.0625 Z M8.125,12.5625 C8.125,12.2515625 7.8734375,12 7.5625,12 L2.5625,12 C2.2515625,12 2,12.2515625 2,12.5625 C2,12.8734375 2.2515625,13.125 2.5625,13.125 L7.5625,13.125 C7.8734375,13.125 8.125,12.8734375 8.125,12.5625 Z" id="Shape"></path>
                </g>
            </g>
        </g>
    </g>
</svg>