<?xml version="1.0" encoding="UTF-8"?>
<svg width="31px" height="49px" viewBox="0 0 31 49" version="1.1" xmlns="http://www.w3.org/2000/svg" xmlns:xlink="http://www.w3.org/1999/xlink">
    <!-- Generator: Sketch 52.2 (67145) - http://www.bohemiancoding.com/sketch -->
    <title>Group 15</title>
    <desc>Created with Sketch.</desc>
    <g id="Page-1" stroke="none" stroke-width="1" fill="none" fill-rule="evenodd">
        <g id="AM" transform="translate(-297.000000, -280.000000)">
            <g id="Group-15" transform="translate(297.000000, 280.000000)">
                <path d="M1.1135,28.6086 L29.7135,28.6086 L18.7545,41.1836 L18.7545,46.6546 C18.7545,47.3976 18.1525,48.0006 17.4085,48.0006 L13.3225,48.0006 C12.5795,48.0006 11.9775,47.3976 11.9775,46.6546 L11.9775,41.1836 L1.1135,28.6086 Z" id="Stroke-1" stroke="#4E4D4D" fill="#00D7FF"></path>
                <polyline id="Stroke-3" stroke="#4E4D4D" points="0.5002 26.532 30.3122 26.532 30.3122 21.239 0.5002 21.239 0.5002 27.042"></polyline>
                <path d="M20.5124,9.8655 L22.3894,9.8655 L22.3894,0.0005 L20.8664,0.0005 C20.6514,0.5955 20.2594,1.1185 19.6834,1.5665 C19.1104,2.0165 18.5784,2.3205 18.0874,2.4795 L18.0874,4.1925 C19.0184,3.8845 19.8274,3.4075 20.5124,2.7625 L20.5124,9.8655 Z" id="Fill-5" fill="#4E4D4D"></path>
                <path d="M21.9612,20.8005 L23.8222,20.8005 C23.7702,20.6225 23.7442,20.3925 23.7452,20.1085 C23.7472,19.6615 23.8962,18.8815 24.1952,17.7655 C24.4942,16.6515 24.7692,15.8735 25.0182,15.4375 C25.2082,15.0975 25.4082,14.8825 25.6152,14.7885 C25.8202,14.6925 26.0332,14.6745 26.2502,14.7315 C26.4652,14.7895 26.6392,14.9115 26.7692,15.0975 C26.8992,15.2815 26.9632,15.5985 26.9612,16.0455 C26.9602,16.4915 26.8102,17.2725 26.5112,18.3855 C26.2122,19.5025 25.9392,20.2775 25.6902,20.7095 C25.6732,20.7405 25.6552,20.7715 25.6372,20.8005 L27.7562,20.8005 C28.0102,20.2645 28.2352,19.6315 28.4312,18.9005 C28.9132,17.1005 28.9502,15.7275 28.5432,14.7855 C28.2002,13.9895 27.5712,13.4685 26.6542,13.2225 C25.7362,12.9765 24.9352,13.1105 24.2472,13.6205 C23.4172,14.2395 22.7602,15.4445 22.2812,17.2335 C21.8732,18.7585 21.7662,19.9475 21.9612,20.8005" id="Fill-7" fill="#4E4D4D"></path>
                <path d="M14.1564,13.2971 C13.5834,13.7471 13.0514,14.0501 12.5604,14.2101 L12.5604,15.9231 C13.4914,15.6151 14.3004,15.1371 14.9854,14.4931 L14.9854,20.8001 L16.8624,20.8001 L16.8624,11.7301 L15.3394,11.7301 C15.1244,12.3261 14.7324,12.8491 14.1564,13.2971" id="Fill-9" fill="#4E4D4D"></path>
                <path d="M12.6296,7.4812 C12.5336,7.8582 12.3966,8.1182 12.2236,8.2622 C12.0466,8.4082 11.8466,8.4812 11.6226,8.4812 C11.3986,8.4812 11.1996,8.4112 11.0266,8.2672 C10.8526,8.1232 10.7096,7.8352 10.5946,7.4032 C10.4806,6.9722 10.4236,6.1792 10.4236,5.0242 C10.4236,3.8712 10.4876,3.0482 10.6156,2.5622 C10.7116,2.1852 10.8486,1.9252 11.0246,1.7812 C11.1976,1.6352 11.3986,1.5622 11.6226,1.5622 C11.8466,1.5622 12.0456,1.6352 12.2186,1.7812 C12.3926,1.9252 12.5356,2.2152 12.6506,2.6472 C12.7646,3.0782 12.8216,3.8712 12.8216,5.0242 C12.8216,6.1792 12.7576,6.9992 12.6296,7.4812 M13.8516,1.0212 C13.3146,0.3402 12.5726,0.0002 11.6226,0.0002 C10.6716,0.0002 9.9326,0.3352 9.4006,1.0072 C8.7586,1.8202 8.4366,3.1532 8.4366,5.0052 C8.4366,6.8922 8.7296,8.2052 9.3136,8.9402 C9.8986,9.6762 10.6676,10.0442 11.6226,10.0442 C12.5726,10.0442 13.3126,9.7082 13.8446,9.0362 C14.4866,8.2232 14.8086,6.8852 14.8086,5.0242 C14.8086,3.1602 14.4886,1.8242 13.8516,1.0212" id="Fill-11" fill="#4E4D4D"></path>
                <path d="M3.0554,20.8005 L5.1914,20.8005 C5.1594,20.7515 5.1284,20.6985 5.0964,20.6425 C4.8744,20.2555 4.6134,19.5055 4.3144,18.3885 C4.0164,17.2745 3.8654,16.4645 3.8634,15.9615 C3.8584,15.5725 3.9234,15.2855 4.0554,15.1005 C4.1854,14.9145 4.3604,14.7925 4.5764,14.7345 C4.7924,14.6765 5.0034,14.6955 5.2094,14.7915 C5.4144,14.8855 5.6284,15.1285 5.8504,15.5155 C6.0724,15.9035 6.3324,16.6545 6.6304,17.7685 C6.9304,18.8845 7.0804,19.6925 7.0814,20.1915 C7.0844,20.4345 7.0604,20.6375 7.0104,20.8005 L8.8404,20.8005 C9.0384,19.8985 8.9414,18.7155 8.5504,17.2545 C8.0674,15.4535 7.4134,14.2465 6.5894,13.6345 C5.8954,13.1165 5.0904,12.9795 4.1724,13.2255 C3.2554,13.4715 2.6274,13.9875 2.2864,14.7735 C1.8774,15.7245 1.9114,17.0965 2.3904,18.8855 C2.5904,19.6285 2.8114,20.2675 3.0554,20.8005" id="Fill-13" fill="#4E4D4D"></path>
            </g>
        </g>
    </g>
</svg>