<?xml version="1.0" encoding="UTF-8"?>
<svg width="16px" height="16px" viewBox="0 0 16 16" version="1.1" xmlns="http://www.w3.org/2000/svg" xmlns:xlink="http://www.w3.org/1999/xlink">
    <!-- Generator: Sketch 52.2 (67145) - http://www.bohemiancoding.com/sketch -->
    <title>edit copy 4</title>
    <desc>Created with Sketch.</desc>
    <g id="Page-1" stroke="none" stroke-width="1" fill="none" fill-rule="evenodd">
        <g id="物解析-copy-10" transform="translate(-1783.000000, -219.000000)" fill="#00D7FF" fill-rule="nonzero">
            <g id="edit-copy-4" transform="translate(1783.000000, 219.000000)">
                <path d="M14.6590909,14.0454545 L0.613636364,14.0454545 C0.274431818,14.0454545 0,14.3198864 0,14.6590909 C0,14.9982955 0.274431818,15.2727273 0.613636364,15.2727273 L14.6590909,15.2727273 C14.9982955,15.2727273 15.2727273,14.9982955 15.2727273,14.6590909 C15.2727273,14.3198864 14.9982955,14.0454545 14.6590909,14.0454545 Z M3.95454545,12.0340909 L7.96875,10.3346591 C8.03352273,10.3073864 8.09147727,10.2681818 8.14261364,10.21875 L14.9130682,3.44829545 C15.3920455,2.96931818 15.3954545,2.18863636 14.9164773,1.70965909 L13.5647727,0.357954545 C13.0857955,-0.121022727 12.3051136,-0.117613636 11.8261364,0.361363636 L5.05568182,7.13181818 C5.00625,7.18125 4.96704545,7.24090909 4.93977273,7.30568182 L3.23863636,11.3181818 C3.14318182,11.5431818 3.20965909,11.7698864 3.35454545,11.9164773 C3.49943182,12.0630682 3.72784091,12.1295455 3.95454545,12.0340909 Z M12.69375,1.22897727 L12.6971591,1.22556818 L14.0471591,2.57556818 L14.04375,2.57897727 L12.9869318,3.63579545 L11.6369318,2.28579545 L12.69375,1.22897727 Z M6.01704545,7.90568182 L10.7693182,3.15340909 L12.1193182,4.50340909 L7.36704545,9.25568182 L5.025,10.2477273 L6.01704545,7.90568182 Z" id="Shape"></path>
            </g>
        </g>
    </g>
</svg>