<?xml version="1.0" encoding="UTF-8"?>
<svg width="49px" height="47px" viewBox="0 0 49 47" version="1.1" xmlns="http://www.w3.org/2000/svg" xmlns:xlink="http://www.w3.org/1999/xlink">
    <!-- Generator: Sketch 52.2 (67145) - http://www.bohemiancoding.com/sketch -->
    <title>Group 31</title>
    <desc>Created with Sketch.</desc>
    <g id="Page-1" stroke="none" stroke-width="1" fill="none" fill-rule="evenodd">
        <g id="draft-dashboard-copy" transform="translate(-1296.000000, -639.000000)">
            <g id="Group-31" transform="translate(1296.000000, 640.000000)">
                <path d="M9.61502222,14.8663111 C9.61502222,17.5214222 7.46213333,19.6734222 4.80791111,19.6734222 C2.15191111,19.6734222 0.0008,17.5214222 0.0008,14.8663111 C0.0008,12.2112 2.15191111,10.0592 4.80791111,10.0592 C7.46213333,10.0592 9.61502222,12.2112 9.61502222,14.8663111" id="Fill-1" fill="#00D7FF"></path>
                <path d="M29.7070222,5.25173333 C29.7070222,7.90684444 27.5550222,10.0588444 24.8999111,10.0588444 C22.2448,10.0588444 20.0928,7.90684444 20.0928,5.25173333 C20.0928,2.59662222 22.2448,0.444622222 24.8999111,0.444622222 C27.5550222,0.444622222 29.7070222,2.59662222 29.7070222,5.25173333 Z" id="Stroke-3" stroke="#4E4D4D"></path>
                <path d="M47.7642667,22.0968 C47.7642667,24.7519111 45.6113778,26.9039111 42.9562667,26.9039111 C40.3011556,26.9039111 38.1491556,24.7519111 38.1491556,22.0968 C38.1491556,19.4416889 40.3011556,17.2896889 42.9562667,17.2896889 C45.6113778,17.2896889 47.7642667,19.4416889 47.7642667,22.0968 Z" id="Stroke-5" stroke="#4E4D4D"></path>
                <path d="M28.8181333,22.9856889 C28.8181333,25.6408 26.6661333,27.7928 24.0110222,27.7928 C21.3559111,27.7928 19.2039111,25.6408 19.2039111,22.9856889 C19.2039111,20.3305778 21.3559111,18.1785778 24.0110222,18.1785778 C26.6661333,18.1785778 28.8181333,20.3305778 28.8181333,22.9856889 Z" id="Stroke-7" stroke="#4E4D4D"></path>
                <path d="M28.8181333,39.8024889 C28.8181333,42.4576 26.6661333,44.6104889 24.0110222,44.6104889 C21.3559111,44.6104889 19.2039111,42.4576 19.2039111,39.8024889 C19.2039111,37.1473778 21.3559111,34.9953778 24.0110222,34.9953778 C26.6661333,34.9953778 28.8181333,37.1473778 28.8181333,39.8024889 Z" id="Stroke-9" stroke="#4E4D4D"></path>
                <path d="M9.61502222,31.1601778 C9.61502222,33.8152889 7.46213333,35.9672889 4.80791111,35.9672889 C2.15191111,35.9672889 0.0008,33.8152889 0.0008,31.1601778 C0.0008,28.5050667 2.15191111,26.3521778 4.80791111,26.3521778 C7.46213333,26.3521778 9.61502222,28.5050667 9.61502222,31.1601778" id="Fill-11" fill="#00D7FF"></path>
                <path d="M9.15235556,33.2056889 L19.7292444,38.0759111" id="Stroke-13" stroke="#4E4D4D"></path>
                <path d="M27.5993778,36.6115556 L39.6331556,25.5422222" id="Stroke-15" stroke="#4E4D4D"></path>
                <path d="M38.9483556,19.4422222 L28.1101333,8.82355556" id="Stroke-17" stroke="#4E4D4D"></path>
                <path d="M29.1740444,23.0385778 L38.4664889,23.0385778" id="Stroke-19" stroke="#4E4D4D"></path>
                <path d="M8.68533333,12.5048 L20.0924444,7.31902222" id="Stroke-21" stroke="#4E4D4D"></path>
                <path d="M21.1376,8.82337778 L7.04071111,26.9042667" id="Stroke-23" stroke="#4E4D4D"></path>
                <path d="M9.29466667,16.2369778 L20.4324444,20.0156444" id="Stroke-25" stroke="#4E4D4D"></path>
                <path d="M7.77991111,18.2678222 L21.1372444,35.7247111" id="Stroke-27" stroke="#4E4D4D"></path>
                <path d="M9.15235556,29.5329778 L19.4492444,25.1294222" id="Stroke-29" stroke="#4E4D4D"></path>
            </g>
        </g>
    </g>
</svg>