<?xml version="1.0" encoding="UTF-8"?>
<svg width="42px" height="44px" viewBox="0 0 42 44" version="1.1" xmlns="http://www.w3.org/2000/svg" xmlns:xlink="http://www.w3.org/1999/xlink">
    <!-- Generator: Sketch 52.2 (67145) - http://www.bohemiancoding.com/sketch -->
    <title>Group 24</title>
    <desc>Created with Sketch.</desc>
    <defs>
        <polygon id="path-1" points="0.5002 0.739 41.949 0.739 41.949 44.5 0.5002 44.5"></polygon>
    </defs>
    <g id="Page-1" stroke="none" stroke-width="1" fill="none" fill-rule="evenodd">
        <g id="AM" transform="translate(-627.000000, -1267.000000)">
            <g id="Group-24" transform="translate(627.000000, 1266.000000)">
                <g id="Group-3" transform="translate(0.000000, 0.261400)">
                    <mask id="mask-2" fill="white">
                        <use xlink:href="#path-1"></use>
                    </mask>
                    <g id="Clip-2"></g>
                    <polyline id="Stroke-1" stroke="#4E4D4D" stroke-width="1.5" mask="url(#mask-2)" points="0.5002 0.739 0.5002 44.5 41.9492 44.5"></polyline>
                </g>
                <path d="M0.711608887,44.5009155 C0.711608887,44.5009155 12.7794059,32.3339437 36.915,8" id="Stroke-4" stroke="#4E4D4D" stroke-width="0.8"></path>
                <path d="M12.2249,18.7475 C12.2249,20.1268103 11.1042103,21.2475 9.7249,21.2475 C8.34405025,21.2475 7.2249,20.1268103 7.2249,18.7475 C7.2249,17.3681897 8.34405025,16.2475 9.7249,16.2475 C11.1042103,16.2475 12.2249,17.3681897 12.2249,18.7475" id="Fill-6" stroke="#4E4D4D" fill="#00D7FF"></path>
                <path d="M24,13.5 C24,14.8793103 22.8793103,16 21.5,16 C20.1191502,16 19,14.8793103 19,13.5 C19,12.1206897 20.1191502,11 21.5,11 C22.8793103,11 24,12.1206897 24,13.5" id="Fill-10" stroke="#4E4D4D" fill="#00D7FF"></path>
                <path d="M36.3372,17.9341 C36.3372,19.3134103 35.2180498,20.4341 33.8372,20.4341 C32.4563502,20.4341 31.3372,19.3134103 31.3372,17.9341 C31.3372,16.5532502 32.4563502,15.4341 33.8372,15.4341 C35.2180498,15.4341 36.3372,16.5532502 36.3372,17.9341" id="Fill-14" stroke="#4E4D4D" fill="#00D7FF"></path>
                <path d="M37.1087,27.9225301 C37.1087,29.3038051 35.9892051,30.4233 34.6079301,30.4233 C33.226655,30.4233 32.1087,29.3038051 32.1087,27.9225301 C32.1087,26.5427949 33.226655,25.4233 34.6079301,25.4233 C35.9892051,25.4233 37.1087,26.5427949 37.1087,27.9225301" id="Fill-16" stroke="#4E4D4D" fill="#00D7FF"></path>
                <path d="M21.9983,35.1889 C21.9983,36.5682103 20.8788051,37.6889 19.4990699,37.6889 C18.116255,37.6889 16.9983,36.5682103 16.9983,35.1889 C16.9983,33.8080502 18.116255,32.6889 19.4990699,32.6889 C20.8788051,32.6889 21.9983,33.8080502 21.9983,35.1889" id="Fill-20" stroke="#4E4D4D" fill="#00D7FF"></path>
            </g>
        </g>
    </g>
</svg>