<?xml version="1.0" encoding="UTF-8"?>
<svg width="50px" height="50px" viewBox="0 0 50 50" version="1.1" xmlns="http://www.w3.org/2000/svg" xmlns:xlink="http://www.w3.org/1999/xlink">
    <!-- Generator: Sketch 52.2 (67145) - http://www.bohemiancoding.com/sketch -->
    <title>Group 23</title>
    <desc>Created with Sketch.</desc>
    <g id="Page-1" stroke="none" stroke-width="1" fill="none" fill-rule="evenodd">
        <g id="AM" transform="translate(-287.000000, -637.000000)" stroke="#4E4D4D">
            <g id="Group-23" transform="translate(288.000000, 638.000000)">
                <path d="M9.77946122,5.2418 C9.77946122,7.8608 7.69978776,9.9828 5.13423673,9.9828 C2.56966531,9.9828 0.489991837,7.8608 0.489991837,5.2418 C0.489991837,2.6228 2.56966531,0.4998 5.13423673,0.4998 C7.69978776,0.4998 9.77946122,2.6228 9.77946122,5.2418 Z" id="Stroke-1"></path>
                <path d="M47.5048163,5.2418 C47.5048163,7.8608 45.4251429,9.9828 42.8595918,9.9828 C40.2950204,9.9828 38.2153469,7.8608 38.2153469,5.2418 C38.2153469,2.6228 40.2950204,0.4998 42.8595918,0.4998 C45.4251429,0.4998 47.5048163,2.6228 47.5048163,5.2418 Z" id="Stroke-3"></path>
                <path d="M47.5048163,24.2364 C47.5048163,26.8554 45.4251429,28.9774 42.8595918,28.9774 C40.2950204,28.9774 38.2153469,26.8554 38.2153469,24.2364 C38.2153469,21.6174 40.2950204,19.4944 42.8595918,19.4944 C45.4251429,19.4944 47.5048163,21.6174 47.5048163,24.2364 Z" id="Stroke-5"></path>
                <path d="M9.77946122,43.2252 C9.77946122,45.8442 7.69978776,47.9672 5.13423673,47.9672 C2.56966531,47.9672 0.489991837,45.8442 0.489991837,43.2252 C0.489991837,40.6062 2.56966531,38.4832 5.13423673,38.4832 C7.69978776,38.4832 9.77946122,40.6062 9.77946122,43.2252 Z" id="Stroke-7"></path>
                <path d="M28.3865143,42.6979 C28.3865143,45.3169 26.3068408,47.4399 23.7412898,47.4399 C21.1767184,47.4399 19.0970449,45.3169 19.0970449,42.6979 C19.0970449,40.0789 21.1767184,37.9559 23.7412898,37.9559 C26.3068408,37.9559 28.3865143,40.0789 28.3865143,42.6979 Z" id="Stroke-11"></path>
                <path d="M8.40577959,8.6066 L17.450351,18.0076" id="Stroke-13"></path>
                <path d="M29.8897959,17.8253 L39.0597551,8.6113" id="Stroke-15"></path>
                <path d="M32.2446367,24.8248 L38.215249,24.8248" id="Stroke-17"></path>
                <path d="M23.0943673,37.9562 L22.4478367,32.4842" id="Stroke-19"></path>
                <path d="M8.40577959,39.8605 L17.8549224,30.0515" id="Stroke-21"></path>
                <path d="M32.2446367,23.8136 C32.2446367,28.6026 28.4418612,32.4846 23.7505959,32.4846 C19.0603102,32.4846 15.2575347,28.6026 15.2575347,23.8136 C15.2575347,19.0246 19.0603102,15.1436 23.7505959,15.1436 C28.4418612,15.1436 32.2446367,19.0246 32.2446367,23.8136 Z" id="Stroke-9" fill="#00D7FF"></path>
            </g>
        </g>
    </g>
</svg>