<?xml version="1.0" encoding="UTF-8"?>
<svg width="14px" height="14px" viewBox="0 0 14 14" version="1.1" xmlns="http://www.w3.org/2000/svg" xmlns:xlink="http://www.w3.org/1999/xlink">
    <!-- Generator: Sketch 52.2 (67145) - http://www.bohemiancoding.com/sketch -->
    <title>Path</title>
    <desc>Created with Sketch.</desc>
    <g id="Page-1" stroke="none" stroke-width="1" fill="none" fill-rule="evenodd">
        <g id="物解析-copy-10" transform="translate(-1794.000000, -121.000000)" fill="#FFFFFF" fill-rule="nonzero">
            <g id="-Primary-button-Copy-3" transform="translate(1769.000000, 112.000000)">
                <g id="Group-5" transform="translate(25.000000, 5.000000)">
                    <path d="M13.015625,10.0019531 L7.99804688,10.0019531 L7.99804688,4.984375 C7.99804688,4.44023438 7.5578125,4 7.01367188,4 C6.46953125,4 6.02929688,4.44023438 6.02929688,4.984375 L6.02929688,10.0019531 L0.984375,10.0019531 C0.440234375,10.0019531 0,10.4421875 0,10.9863281 C0,11.5304687 0.440234375,11.9707031 0.984375,11.9707031 L6.02929688,11.9707031 L6.02929688,16.9609375 C6.02929688,17.5050781 6.46953125,17.9453125 7.01367188,17.9453125 C7.5578125,17.9453125 7.99804688,17.5050781 7.99804688,16.9609375 L7.99804688,11.9707031 L13.015625,11.9707031 C13.5597656,11.9707031 14,11.5304687 14,10.9863281 C14,10.4421875 13.5597656,10.0019531 13.015625,10.0019531 Z" id="Path"></path>
                </g>
            </g>
        </g>
    </g>
</svg>