<?xml version="1.0" encoding="UTF-8"?>
<svg width="16px" height="16px" viewBox="0 0 16 16" version="1.1" xmlns="http://www.w3.org/2000/svg" xmlns:xlink="http://www.w3.org/1999/xlink">
    <!-- Generator: Sketch 52.2 (67145) - http://www.bohemiancoding.com/sketch -->
    <title>Shape</title>
    <desc>Created with Sketch.</desc>
    <g id="Page-1" stroke="none" stroke-width="1" fill="none" fill-rule="evenodd">
        <g id="物解析-copy-12" transform="translate(-535.000000, -703.000000)" fill="#00D7FF" fill-rule="nonzero">
            <path d="M543,703 C538.58125,703 535,706.58125 535,711 C535,715.41875 538.58125,719 543,719 C547.41875,719 551,715.41875 551,711 C551,706.58125 547.41875,703 543,703 Z M547.860937,715.860937 C547.229687,716.492188 546.49375,716.989063 545.675,717.334375 C544.828125,717.69375 543.928125,717.875 543,717.875 C542.071875,717.875 541.171875,717.69375 540.325,717.335938 C539.50625,716.989063 538.771875,716.49375 538.139063,715.8625 C537.507812,715.23125 537.010937,714.495312 536.665625,713.676563 C536.30625,712.828125 536.125,711.928125 536.125,711 C536.125,710.071875 536.30625,709.171875 536.664062,708.325 C537.010937,707.50625 537.50625,706.771875 538.1375,706.139063 C538.76875,705.507812 539.504688,705.010937 540.323437,704.665625 C541.171875,704.30625 542.071875,704.125 543,704.125 C543.928125,704.125 544.828125,704.30625 545.675,704.664062 C546.49375,705.010937 547.228125,705.50625 547.860937,706.1375 C548.492188,706.76875 548.989063,707.504688 549.334375,708.323437 C549.69375,709.171875 549.875,710.071875 549.875,711 C549.875,711.928125 549.69375,712.828125 549.335938,713.675 C548.989063,714.49375 548.49375,715.229687 547.860937,715.860937 Z M546.4375,710.445312 L543.570312,710.445312 L543.570312,707.578125 C543.570312,707.267187 543.31875,707.015625 543.007812,707.015625 C542.696875,707.015625 542.445312,707.267187 542.445312,707.578125 L542.445312,710.445312 L539.5625,710.445312 C539.251562,710.445312 539,710.696875 539,711.007812 C539,711.31875 539.251562,711.570312 539.5625,711.570312 L542.445312,711.570312 L542.445312,714.421875 C542.445312,714.732813 542.696875,714.984375 543.007812,714.984375 C543.31875,714.984375 543.570312,714.732813 543.570312,714.421875 L543.570312,711.570312 L546.4375,711.570312 C546.748438,711.570312 547,711.31875 547,711.007812 C547,710.696875 546.748438,710.445312 546.4375,710.445312 Z" id="Shape"></path>
        </g>
    </g>
</svg>