<?xml version="1.0" encoding="UTF-8"?>
<svg width="20px" height="20px" viewBox="0 0 20 20" version="1.1" xmlns="http://www.w3.org/2000/svg" xmlns:xlink="http://www.w3.org/1999/xlink">
    <!-- Generator: Sketch 52.2 (67145) - http://www.bohemiancoding.com/sketch -->
    <title>Shape</title>
    <desc>Created with Sketch.</desc>
    <g id="Page-1" stroke="none" stroke-width="1" fill="none" fill-rule="evenodd" fill-opacity="0.65">
        <g id="物解析-copy-10" transform="translate(-400.000000, -119.000000)" fill="#000000" fill-rule="nonzero">
            <path d="M410,119 C404.476562,119 400,123.476562 400,129 C400,134.523438 404.476562,139 410,139 C415.523438,139 420,134.523438 420,129 C420,123.476562 415.523438,119 410,119 Z M416.076172,135.076172 C415.287109,135.865234 414.367188,136.486328 413.34375,136.917969 C412.285156,137.367188 411.160156,137.59375 410,137.59375 C408.839844,137.59375 407.714844,137.367188 406.65625,136.919922 C405.632812,136.486328 404.714844,135.867188 403.923828,135.078125 C403.134766,134.289062 402.513672,133.369141 402.082031,132.345703 C401.632812,131.285156 401.40625,130.160156 401.40625,129 C401.40625,127.839844 401.632812,126.714844 402.080078,125.65625 C402.513672,124.632812 403.132812,123.714844 403.921875,122.923828 C404.710938,122.134766 405.630859,121.513672 406.654297,121.082031 C407.714844,120.632812 408.839844,120.40625 410,120.40625 C411.160156,120.40625 412.285156,120.632812 413.34375,121.080078 C414.367188,121.513672 415.285156,122.132812 416.076172,122.921875 C416.865234,123.710938 417.486328,124.630859 417.917969,125.654297 C418.367188,126.714844 418.59375,127.839844 418.59375,129 C418.59375,130.160156 418.367188,131.285156 417.919922,132.34375 C417.486328,133.367188 416.867188,134.287109 416.076172,135.076172 Z M409.898438,131.966797 C409.875,131.966797 409.851562,131.964844 409.828125,131.962891 C409.441406,131.925781 409.160156,131.580078 409.197266,131.193359 C409.292969,130.21875 410.007812,129.431641 410.794922,128.644531 C412.054688,127.384766 412.076172,126.984375 412.097656,126.560547 C412.123047,126.066406 411.941406,125.587891 411.582031,125.210938 C411.173828,124.78125 410.595703,124.535156 409.996094,124.535156 C409.994141,124.535156 409.992188,124.535156 409.992188,124.535156 C408.837891,124.537109 407.896484,125.478516 407.896484,126.634766 C407.896484,127.023438 407.582031,127.337891 407.193359,127.337891 C406.804688,127.337891 406.490234,127.023438 406.490234,126.634766 C406.490234,125.699219 406.853516,124.820312 407.513672,124.158203 C408.173828,123.496094 409.052734,123.130859 409.988281,123.128906 C410.974609,123.126953 411.927734,123.533203 412.601562,124.242188 C413.228516,124.902344 413.548828,125.751953 413.501953,126.634766 C413.453125,127.539062 413.175781,128.251953 411.789062,129.638672 C411.085938,130.341797 410.642578,130.869141 410.597656,131.332031 C410.5625,131.695312 410.255859,131.966797 409.898438,131.966797 Z M409.027344,134.023438 C409.027344,134.325578 409.188534,134.604768 409.450195,134.755838 C409.711857,134.906908 410.034237,134.906908 410.295898,134.755838 C410.55756,134.604768 410.71875,134.325578 410.71875,134.023438 C410.71875,133.556369 410.340116,133.177734 409.873047,133.177734 C409.405978,133.177734 409.027344,133.556369 409.027344,134.023438 Z" id="Shape"></path>
        </g>
    </g>
</svg>