<?xml version="1.0" encoding="UTF-8"?>
<svg width="47px" height="48px" viewBox="0 0 47 48" version="1.1" xmlns="http://www.w3.org/2000/svg" xmlns:xlink="http://www.w3.org/1999/xlink">
    <!-- Generator: Sketch 52.2 (67145) - http://www.bohemiancoding.com/sketch -->
    <title>Group 7</title>
    <desc>Created with Sketch.</desc>
    <g id="Page-1" stroke="none" stroke-width="1" fill="none" fill-rule="evenodd">
        <g id="AM" transform="translate(-289.000000, -907.000000)">
            <g id="Group-7" transform="translate(289.000000, 907.000000)">
                <polygon id="Fill-1" fill="#4E4D4D" points="0 47.9944851 46.4874894 47.9944851 46.4874894 45.313634 0 45.313634"></polygon>
                <path d="M30.6638298,42.1044766 L30.6638298,40.5725617" id="Stroke-2" stroke="#9A9A9A"></path>
                <path d="M30.6638298,37.7446468 L30.6638298,10.8809872" id="Stroke-3" stroke="#9A9A9A" stroke-dasharray="2.769,2.769"></path>
                <path d="M30.6638298,9.46754043 L30.6638298,7.93562553" id="Stroke-4" stroke="#9A9A9A"></path>
                <path d="M2.27448511,37.6907234 L3.60725106,30.7051915 C3.6276766,30.6010213 3.77269787,30.5897872 3.80844255,30.6898723 L5.13814468,34.44 C5.17286809,34.5390638 5.31380426,34.5319149 5.33933617,34.4318298 L7.95584681,24.1761702 C7.9824,24.0709787 8.13354894,24.0740426 8.15601702,24.1802553 L9.3611234,29.868766 C9.38461277,29.9780426 9.54086809,29.9749787 9.56027234,29.8646809 L11.8458894,16.6667234 C11.8663149,16.5533617 12.0276766,16.5523404 12.0491234,16.6657021 L13.2348255,22.9904681 C13.2532085,23.0895319 13.3869957,23.1068936 13.4309106,23.0170213 L15.5786553,18.6204255 C15.6215489,18.5325957 15.7512511,18.5489362 15.7716766,18.6439149 L17.6355064,27.498383 C17.6589957,27.6076596 17.8162723,27.6097021 17.840783,27.4994043 L19.7189106,19.3271489 C19.7434213,19.2209362 19.8945702,19.2188936 19.9221447,19.3240851 L21.3284426,24.6571915 C21.3570383,24.7644255 21.5102298,24.7593191 21.5316766,24.6510638 L24.1420596,11.3397447 C24.1655489,11.2233191 24.332017,11.2253617 24.3514213,11.3428085 L25.3982298,17.6185532 C25.417634,17.7339574 25.5830809,17.7370213 25.6065702,17.6226383 L27.9381447,6.22417021 C27.9595915,6.12 28.105634,6.11591489 28.1342298,6.21804255 L29.7018894,11.8003404 C29.7304851,11.9045106 29.881634,11.898383 29.9010383,11.7911489 L31.9885277,0.591829787 C32.0099745,0.477446809 32.1764426,0.486638298 32.1866553,0.60306383 L33.6848681,18.9962553 C33.6940596,19.1116596 33.8615489,19.116766 33.8778894,19.002383 L35.0023149,10.9853617 C35.0196766,10.8699574 35.1861447,10.8709787 35.2004426,10.986383 L36.6761872,22.2265532 C36.6904851,22.3358298 36.841634,22.3501277 36.8753362,22.2449362 L38.1774638,18.2017021 C38.2101447,18.0985532 38.3592511,18.1108085 38.3755915,18.2170213 L39.9534638,28.4481702 C39.9708255,28.5615319 40.1352511,28.5625532 40.1526128,28.4481702 L41.401634,20.4862979 L43.5932936,14.7548936" id="Stroke-5" stroke="#00D7FF"></path>
            </g>
        </g>
    </g>
</svg>