<?xml version="1.0" encoding="UTF-8"?>
<svg width="48px" height="42px" viewBox="0 0 48 42" version="1.1" xmlns="http://www.w3.org/2000/svg" xmlns:xlink="http://www.w3.org/1999/xlink">
    <!-- Generator: Sketch 52.2 (67145) - http://www.bohemiancoding.com/sketch -->
    <title>Group 13</title>
    <desc>Created with Sketch.</desc>
    <defs>
        <polygon id="path-1" points="0 0.00024 48 0.00024 48 41.6 0 41.6"></polygon>
    </defs>
    <g id="Page-1" stroke="none" stroke-width="1" fill="none" fill-rule="evenodd">
        <g id="AM" transform="translate(-624.000000, -1626.000000)">
            <g id="Group-13" transform="translate(624.000000, 1626.000000)">
                <mask id="mask-2" fill="white">
                    <use xlink:href="#path-1"></use>
                </mask>
                <g id="Clip-2"></g>
                <path d="M40.8,40 L44,40 L44,35.2 L40.8,35.2 L40.8,40 Z M40,41.6 L44.8,41.6 C45.2416,41.6 45.6,41.2416 45.6,40.8 L45.6,34.4 C45.6,33.9584 45.2416,33.6 44.8,33.6 L40,33.6 C39.5584,33.6 39.2,33.9584 39.2,34.4 L39.2,40.8 C39.2,41.2416 39.5584,41.6 40,41.6 Z" id="Fill-1" fill="#4E4D4D" mask="url(#mask-2)"></path>
                <path d="M4,40 L7.2,40 L7.2,35.2 L4,35.2 L4,40 Z M3.2,41.6 L8,41.6 C8.4416,41.6 8.8,41.2416 8.8,40.8 L8.8,34.4 C8.8,33.9584 8.4416,33.6 8,33.6 L3.2,33.6 C2.7584,33.6 2.4,33.9584 2.4,34.4 L2.4,40.8 C2.4,41.2416 2.7584,41.6 3.2,41.6 Z" id="Fill-3" fill="#4E4D4D" mask="url(#mask-2)"></path>
                <path d="M1.89464,33.60024 C1.73224,33.60024 1.60024,33.46824 1.60024,33.30584 L1.60024,25.89464 C1.60024,25.73144 1.73224,25.60024 1.89464,25.60024 L46.10504,25.60024 C46.26824,25.60024 46.40024,25.73224 46.40024,25.89464 L46.40024,33.30584 C46.40024,33.46744 46.26824,33.60024 46.10504,33.60024 L1.89464,33.60024 Z M1.89464,35.20024 L46.10504,35.20024 C47.15144,35.20024 48.00024,34.35144 48.00024,33.30584 L48.00024,25.89464 C48.00024,24.84904 47.15144,24.00024 46.10504,24.00024 L1.89464,24.00024 C0.84824,24.00024 0.00024,24.84904 0.00024,25.89464 L0.00024,33.30584 C0.00024,34.35144 0.84824,35.20024 1.89464,35.20024 Z" id="Fill-4" fill="#4E4D4D" mask="url(#mask-2)"></path>
                <path d="M47.19968,40.00024 L0.79968,40.00024 C0.35808,40.00024 -0.00032,40.35784 -0.00032,40.80024 C-0.00032,41.24184 0.35808,41.60024 0.79968,41.60024 L47.19968,41.60024 C47.64208,41.60024 47.99968,41.24184 47.99968,40.80024 C47.99968,40.35784 47.64208,40.00024 47.19968,40.00024" id="Fill-5" fill="#4E4D4D" mask="url(#mask-2)"></path>
                <path d="M12.8,14.4 L14.4,14.4 L14.4,9.6 L12.8,9.6 L12.8,14.4 Z M12,16 L15.2,16 C15.6416,16 16,15.6416 16,15.2 L16,8.8 C16,8.3584 15.6416,8 15.2,8 L12,8 C11.5584,8 11.2,8.3584 11.2,8.8 L11.2,15.2 C11.2,15.6416 11.5584,16 12,16 Z" id="Fill-6" fill="#4E4D4D" mask="url(#mask-2)"></path>
                <path d="M20.00008,12.00024 C20.00008,10.67464 18.92568,9.60024 17.60008,9.60024 L15.20008,9.60024 C14.75848,9.60024 14.40008,9.95784 14.40008,10.40024 L14.40008,13.60024 C14.40008,14.04184 14.75848,14.40024 15.20008,14.40024 L17.60008,14.40024 C18.92568,14.40024 20.00008,13.32584 20.00008,12.00024 Z M16.00008,12.80024 L16.00008,11.20024 L17.60008,11.20024 C18.04248,11.20024 18.40008,11.55784 18.40008,12.00024 C18.40008,12.44264 18.04248,12.80024 17.60008,12.80024 L16.00008,12.80024 Z" id="Fill-7" fill="#4E4D4D" mask="url(#mask-2)"></path>
                <path d="M22.40008,11.20024 L19.20008,11.20024 C18.75848,11.20024 18.40008,11.55784 18.40008,12.00024 C18.40008,12.44184 18.75848,12.80024 19.20008,12.80024 L22.40008,12.80024 C22.84168,12.80024 23.20008,12.44184 23.20008,12.00024 C23.20008,11.55784 22.84168,11.20024 22.40008,11.20024" id="Fill-8" fill="#4E4D4D" mask="url(#mask-2)"></path>
                <path d="M23.2,23.2 L39.2,23.2 L39.2,20 L23.2,20 L23.2,23.2 Z M22.4,24.8 L40,24.8 C40.4416,24.8 40.8,24.4416 40.8,24 L40.8,19.2 C40.8,18.7584 40.4416,18.4 40,18.4 L22.4,18.4 C21.9584,18.4 21.6,18.7584 21.6,19.2 L21.6,24 C21.6,24.4416 21.9584,24.8 22.4,24.8 Z" id="Fill-9" fill="#4E4D4D" mask="url(#mask-2)"></path>
                <path d="M1.6,16 L11.2,16 L11.2,8 L1.6,8 L1.6,16 Z M0.8,17.6 L12,17.6 C12.4416,17.6 12.8,17.2416 12.8,16.8 L12.8,7.2 C12.8,6.7584 12.4416,6.4 12,6.4 L0.8,6.4 C0.3584,6.4 0,6.7584 0,7.2 L0,16.8 C0,17.2416 0.3584,17.6 0.8,17.6 Z" id="Fill-10" fill="#4E4D4D" mask="url(#mask-2)"></path>
                <path d="M4.80008,6.40024 L4.80008,1.86104 C4.80008,1.71704 4.91688,1.60024 5.06088,1.60024 L7.73928,1.60024 C7.88328,1.60024 8.00008,1.71704 8.00008,1.86104 L8.00008,6.40024 L4.80008,6.40024 Z M9.60008,8.00024 L9.60008,1.86104 C9.60008,0.83304 8.76648,0.00024 7.73928,0.00024 L5.06088,0.00024 C4.03368,0.00024 3.20008,0.83304 3.20008,1.86104 L3.20008,8.00024 L9.60008,8.00024 Z" id="Fill-11" fill="#4E4D4D" mask="url(#mask-2)"></path>
                <path d="M4.8,23.2 L8,23.2 L8,17.6 L4.8,17.6 L4.8,23.2 Z M3.2,24.8 L9.6,24.8 L9.6,16 L3.2,16 L3.2,24.8 Z" id="Fill-12" fill="#4E4D4D" mask="url(#mask-2)"></path>
                <rect id="Rectangle" fill="#00D7FF" x="1.6" y="8" width="9.6" height="8"></rect>
            </g>
        </g>
    </g>
</svg>