<?xml version="1.0" encoding="UTF-8"?>
<svg width="40px" height="48px" viewBox="0 0 40 48" version="1.1" xmlns="http://www.w3.org/2000/svg" xmlns:xlink="http://www.w3.org/1999/xlink">
    <!-- Generator: Sketch 52.2 (67145) - http://www.bohemiancoding.com/sketch -->
    <title>Group 12</title>
    <desc>Created with Sketch.</desc>
    <defs>
        <polygon id="path-1" points="0.0001 0 40 0 40 48 0.0001 48"></polygon>
    </defs>
    <g id="Page-1" stroke="none" stroke-width="1" fill="none" fill-rule="evenodd">
        <g id="AM" transform="translate(-292.000000, -1623.000000)">
            <g id="Group-12" transform="translate(292.000000, 1623.000000)">
                <mask id="mask-2" fill="white">
                    <use xlink:href="#path-1"></use>
                </mask>
                <g id="Clip-2"></g>
                <path d="M10,46 L30,46 L30,44 L10,44 L10,46 Z M31,48 L9,48 C8.448,48 8,47.552 8,47 L8,43 C8,42.448 8.448,42 9,42 L31,42 C31.552,42 32,42.448 32,43 L32,47 C32,47.552 31.552,48 31,48 Z" id="Fill-1" fill="#4E4D4D" mask="url(#mask-2)"></path>
                <path d="M34.0001,2.0003 C31.7941,2.0003 30.0001,3.7943 30.0001,6.0003 C30.0001,8.2063 31.7941,10.0003 34.0001,10.0003 C36.2061,10.0003 38.0001,8.2063 38.0001,6.0003 C38.0001,3.7943 36.2061,2.0003 34.0001,2.0003 M34.0001,12.0003 C30.6921,12.0003 28.0001,9.3083 28.0001,6.0003 C28.0001,2.6913 30.6921,0.0003 34.0001,0.0003 C37.3081,0.0003 40.0001,2.6913 40.0001,6.0003 C40.0001,9.3083 37.3081,12.0003 34.0001,12.0003" id="Fill-3" fill="#4E4D4D" mask="url(#mask-2)"></path>
                <circle id="Oval" fill="#00D7FF" mask="url(#mask-2)" cx="34" cy="6" r="4"></circle>
                <path d="M12.0001,42.0003 L28.0001,42.0003 C28.0001,37.5883 24.4121,34.0003 20.0001,34.0003 C15.5881,34.0003 12.0001,37.5883 12.0001,42.0003 M29.0001,44.0003 L11.0001,44.0003 C10.4481,44.0003 10.0001,43.5523 10.0001,43.0003 L10.0001,42.0003 C10.0001,36.4853 14.4861,32.0003 20.0001,32.0003 C25.5141,32.0003 30.0001,36.4853 30.0001,42.0003 L30.0001,43.0003 C30.0001,43.5523 29.5521,44.0003 29.0001,44.0003" id="Fill-4" fill="#4E4D4D" mask="url(#mask-2)"></path>
                <path d="M28.0001,38.0003 C27.9141,38.0003 27.8261,37.9873 27.7401,37.9643 C27.2061,37.8213 26.8901,37.2713 27.0341,36.7393 L34.0341,10.7393 C34.1761,10.2043 34.7301,9.8923 35.2601,10.0343 C35.7941,10.1763 36.1101,10.7263 35.9661,11.2583 L28.9661,37.2583 C28.8461,37.7083 28.4421,38.0003 28.0001,38.0003" id="Fill-5" fill="#4E4D4D" mask="url(#mask-2)"></path>
                <path d="M16.0001,35.0003 C15.8341,35.0003 15.6661,34.9583 15.5121,34.8743 C15.0301,34.6043 14.8581,33.9963 15.1281,33.5123 L29.1281,8.5123 C29.3961,8.0293 30.0061,7.8553 30.4881,8.1283 C30.9701,8.3973 31.1421,9.0063 30.8721,9.4893 L16.8721,34.4893 C16.6901,34.8153 16.3501,35.0003 16.0001,35.0003" id="Fill-6" fill="#4E4D4D" mask="url(#mask-2)"></path>
                <path d="M7.0001,6.0003 L1.0001,6.0003 C0.4481,6.0003 0.0001,5.5523 0.0001,5.0003 C0.0001,4.4473 0.4481,4.0003 1.0001,4.0003 L7.0001,4.0003 C7.5521,4.0003 8.0001,4.4473 8.0001,5.0003 C8.0001,5.5523 7.5521,6.0003 7.0001,6.0003" id="Fill-7" fill="#4E4D4D" mask="url(#mask-2)"></path>
                <path d="M8,6 L10,6 L10,4 L8,4 L8,6 Z M11,8 L7,8 C6.448,8 6,7.552 6,7 L6,3 C6,2.448 6.448,2 7,2 L11,2 C11.552,2 12,2.448 12,3 L12,7 C12,7.552 11.552,8 11,8 Z" id="Fill-8" fill="#4E4D4D" mask="url(#mask-2)"></path>
                <path d="M12,8 L14,8 L14,2 L12,2 L12,8 Z M15,10 L11,10 C10.448,10 10,9.552 10,9 L10,1 C10,0.448 10.448,0 11,0 L15,0 C15.552,0 16,0.448 16,1 L16,9 C16,9.552 15.552,10 15,10 Z" id="Fill-9" fill="#4E4D4D" mask="url(#mask-2)"></path>
                <path d="M15.0001,4.0003 C14.4761,4.0003 14.0361,3.5923 14.0021,3.0623 C13.9681,2.5123 14.3861,2.0363 14.9381,2.0023 L30.9381,1.0023 C31.4981,0.9453 31.9641,1.3863 31.9981,1.9373 C32.0321,2.4893 31.6141,2.9643 31.0621,2.9983 L15.0621,3.9983 C15.0421,4.0003 15.0201,4.0003 15.0001,4.0003" id="Fill-10" fill="#4E4D4D" mask="url(#mask-2)"></path>
                <path d="M30.0001,10.0003 C29.9561,10.0003 29.9121,9.9983 29.8681,9.9923 L14.8681,7.9923 C14.3201,7.9183 13.9361,7.4163 14.0081,6.8683 C14.0821,6.3213 14.5821,5.9343 15.1321,6.0083 L30.1321,8.0083 C30.6801,8.0823 31.0641,8.5843 30.9921,9.1343 C30.9241,9.6343 30.4961,10.0003 30.0001,10.0003" id="Fill-11" fill="#4E4D4D" mask="url(#mask-2)"></path>
            </g>
        </g>
    </g>
</svg>